<?xml version="1.0" encoding="UTF-8"?><svg xmlns="http://www.w3.org/2000/svg" xmlns:xlink="http://www.w3.org/1999/xlink" fill-opacity="1" color-rendering="auto" color-interpolation="auto" text-rendering="auto" stroke="black" stroke-linecap="square" width="1073" stroke-miterlimit="10" shape-rendering="auto" stroke-opacity="1" fill="black" stroke-dasharray="none" font-weight="normal" stroke-width="1" height="528" font-family="'Dialog'" font-style="normal" stroke-linejoin="miter" font-size="12" stroke-dashoffset="0" image-rendering="auto">
  <!--Generated by ySVG 2.5-->
  <defs id="genericDefs"/>
  <g>
    <g fill="white" text-rendering="geometricPrecision" shape-rendering="geometricPrecision" transform="translate(-67,-61)" stroke="white">
      <rect x="67" width="1073" height="528" y="61" clip-path="url(#clipPath2)" stroke="none"/>
    </g>
    <g fill="url(#linearGradient1)" text-rendering="geometricPrecision" shape-rendering="geometricPrecision" transform="matrix(1,0,0,1,-67,-61)" stroke="url(#linearGradient1)">
      <path d="M208 76 L1009 76 L1009 504 L208 504 Z" stroke="none" clip-path="url(#clipPath2)"/>
    </g>
    <g text-rendering="geometricPrecision" stroke-miterlimit="1.45" shape-rendering="geometricPrecision" transform="matrix(1,0,0,1,-67,-61)" stroke-linecap="butt">
      <path fill="none" d="M208 76 L1009 76 L1009 504 L208 504 Z" clip-path="url(#clipPath2)"/>
    </g>
    <g text-rendering="geometricPrecision" shape-rendering="geometricPrecision" transform="matrix(1.4743,0,0,1.4523,27.7768,159)">
      <g clip-path="url(#clipPath3)">
        <svg xmlns:svg="http://www.w3.org/2000/svg" xmlns:sodipodi="http://sodipodi.sourceforge.net/DTD/sodipodi-0.dtd" xmlns:inkscape="http://www.inkscape.org/namespaces/inkscape" xmlns:dc="http://purl.org/dc/elements/1.1/" xmlns:cc="http://web.resource.org/cc/" xmlns:rdf="http://www.w3.org/1999/02/22-rdf-syntax-ns#" opacity="1" writing-mode="lr-tb" stop-color="rgb(0, 0, 0)" shape-rendering="auto" glyph-orientation-horizontal="0deg" color-profile="auto" lighting-color="rgb(255, 255, 255)" color="rgb(0, 0, 0)" font-weight="400" alignment-baseline="auto" font-style="normal" version="1.0" color-interpolation-filters="linearrgb" text-anchor="start" stroke-linecap="butt" color-interpolation="srgb" font-variant="normal" word-spacing="normal" fill-opacity="1" text-rendering="auto" clip-path="none" text-decoration="none" letter-spacing="normal" glyph-orientation-vertical="auto" display="inline" font-size-adjust="none" overflow="hidden" fill="rgb(0, 0, 0)" font-stretch="normal" stroke-dasharray="none" inkscape:version="0.45.1" id="svg1.svg2" stroke-miterlimit="4" stop-opacity="1" color-rendering="auto" font-size="12" sodipodi:docbase="C:\Daten\alberts\projects\yfx" pointer-events="visiblepainted" mask="none" direction="ltr" baseline-shift="baseline" sodipodi:docname="uml_actor.svg" enable-background="accumulate" fill-rule="nonzero" image-rendering="auto" stroke-dashoffset="0" inkscape:output_extension="org.inkscape.output.svg.inkscape" marker-end="none" width="41" clip="auto" cursor="auto" stroke="none" filter="none" visibility="visible" kerning="auto" stroke-width="1" font-family="&quot;Arial&quot;,&quot;Helvetica&quot;,sans-serif" flood-opacity="1" clip-rule="nonzero" src="none" height="68.997391" unicode-bidi="normal" sodipodi:version="0.32" stroke-linejoin="miter" stroke-opacity="1" flood-color="rgb(0, 0, 0)" dominant-baseline="auto" marker-start="none" marker-mid="none">
  <defs id="svg1.defs4">
            <linearGradient x1="208" gradientUnits="userSpaceOnUse" x2="1009" y1="76" y2="504" id="linearGradient1" spreadMethod="reflect">
              <stop stop-opacity="1" stop-color="white" offset="0%"/>
              <stop stop-opacity="1" stop-color="white" offset="100%"/>
            </linearGradient>
            <linearGradient x1="253" gradientUnits="userSpaceOnUse" x2="568" y1="249" y2="299" id="linearGradient2" spreadMethod="reflect">
              <stop stop-opacity="1" stop-color="rgb(232,238,247)" offset="0%"/>
              <stop stop-opacity="1" stop-color="rgb(232,238,247)" offset="100%"/>
            </linearGradient>
            <linearGradient x1="687" gradientUnits="userSpaceOnUse" x2="961" y1="249" y2="299" id="linearGradient3" spreadMethod="reflect">
              <stop stop-opacity="1" stop-color="rgb(232,238,247)" offset="0%"/>
              <stop stop-opacity="1" stop-color="rgb(232,238,247)" offset="100%"/>
            </linearGradient>
            <linearGradient x1="449" gradientUnits="userSpaceOnUse" x2="709" y1="107" y2="157" id="linearGradient4" spreadMethod="reflect">
              <stop stop-opacity="1" stop-color="rgb(232,238,247)" offset="0%"/>
              <stop stop-opacity="1" stop-color="rgb(232,238,247)" offset="100%"/>
            </linearGradient>
            <linearGradient x1="769" gradientUnits="userSpaceOnUse" x2="994" y1="107" y2="157" id="linearGradient5" spreadMethod="reflect">
              <stop stop-opacity="1" stop-color="rgb(232,238,247)" offset="0%"/>
              <stop stop-opacity="1" stop-color="rgb(232,238,247)" offset="100%"/>
            </linearGradient>
            <linearGradient x1="253" gradientUnits="userSpaceOnUse" x2="568" y1="373" y2="423" id="linearGradient6" spreadMethod="reflect">
              <stop stop-opacity="1" stop-color="rgb(232,238,247)" offset="0%"/>
              <stop stop-opacity="1" stop-color="rgb(232,238,247)" offset="100%"/>
            </linearGradient>
            <linearGradient x1="687" gradientUnits="userSpaceOnUse" x2="961" y1="373" y2="423" id="linearGradient7" spreadMethod="reflect">
              <stop stop-opacity="1" stop-color="rgb(232,238,247)" offset="0%"/>
              <stop stop-opacity="1" stop-color="rgb(232,238,247)" offset="100%"/>
            </linearGradient>
            <linearGradient x1="516" gradientUnits="userSpaceOnUse" x2="701" y1="534" y2="574" id="linearGradient8" spreadMethod="reflect">
              <stop stop-opacity="1" stop-color="rgb(153,153,0)" offset="0%"/>
              <stop stop-opacity="1" stop-color="rgb(153,153,0)" offset="100%"/>
            </linearGradient>
            <clipPath clipPathUnits="userSpaceOnUse" id="clipPath1">
              <path d="M0 0 L1073 0 L1073 528 L0 528 L0 0 Z"/>
            </clipPath>
            <clipPath clipPathUnits="userSpaceOnUse" id="clipPath2">
              <path d="M67 61 L1140 61 L1140 589 L67 589 L67 61 Z"/>
            </clipPath>
            <clipPath clipPathUnits="userSpaceOnUse" id="clipPath3">
              <path d="M-18.8407 -109.4807 L708.9623 -109.4807 L708.9623 254.0779 L-18.8407 254.0779 L-18.8407 -109.4807 Z"/>
            </clipPath>
            <clipPath clipPathUnits="userSpaceOnUse" id="clipPath4">
              <path d="M-667.9623 -109.4807 L59.8407 -109.4807 L59.8407 254.0779 L-667.9623 254.0779 L-667.9623 -109.4807 Z"/>
            </clipPath>
          </defs>
  
  <metadata id="svg1.metadata7">
    
  </metadata>
  <g inkscape:groupmode="layer" id="svg1.layer1" transform="translate(-29.5,-42.959476)" inkscape:label="Ebene 1">
    <a id="svg1.a3142" transform="matrix(1.0873906,0,0,1,-4.4741999,0)">
      <path transform="translate(11.586889,5.2908993)" style="fill:none;fill-rule:evenodd;stroke:#000000;stroke-width:1px;stroke-linecap:butt;stroke-linejoin:miter;stroke-opacity:1" sodipodi:cx="38.509369" sodipodi:cy="47.36993" sodipodi:rx="8.5197716" id="svg1.path2160" d="M 47.02914 47.36993 A 8.5197716 9.2013531 0 1 1  29.989597,47.36993 A 8.5197716 9.2013531 0 1 1  47.02914 47.36993 z" sodipodi:ry="9.2013531" sodipodi:type="arc"/>
    </a>
    <path style="fill:none" sodipodi:cx="43.962021" sodipodi:cy="48.392303" d="M 47.71072 48.392303 A 3.7486994 0 0 1 1  40.213321,48.392303 A 3.7486994 0 0 1 1  47.71072 48.392303 z" id="svg1.path3134" sodipodi:rx="3.7486994" sodipodi:ry="0" sodipodi:type="arc"/>
    <path style="fill:none;fill-rule:evenodd;stroke:#000000;stroke-width:1.24319649px;stroke-linecap:butt;stroke-linejoin:miter;stroke-opacity:1" d="M 50,61.33709 C 50,91.363211 50,92.247838 50,92.247838" id="svg1.path3136"/>
    <path style="fill:none;fill-rule:evenodd;stroke:#000000;stroke-width:1px;stroke-linecap:butt;stroke-linejoin:miter;stroke-opacity:1" d="M 69.760668,72.362183 C 69.760668,72.362183 69.760668,72.362183 50.239332,72.362183 C 30.239332,72.362183 30.239332,72.362183 30.239332,72.362183 L 30.239332,72.362183" id="svg1.path3138"/>
    <path style="fill:none;fill-rule:evenodd;stroke:#000000;stroke-width:1px;stroke-linecap:butt;stroke-linejoin:miter;stroke-opacity:1" d="M 30,111.45687 C 30,111.45687 30,111.45687 50,92.013532 C 70,111.45687 70,111.45687 70,111.45687" id="svg1.path3140"/>
  </g>
</svg>
      </g>
    </g>
    <g font-size="13" stroke-linecap="butt" transform="matrix(1,0,0,1,-67,-61)" text-rendering="geometricPrecision" font-family="sans-serif" shape-rendering="geometricPrecision" stroke-miterlimit="1.45">
      <text x="84.8892" xml:space="preserve" y="339.0698" clip-path="url(#clipPath2)" stroke="none">Stakeholder 1</text>
    </g>
    <g text-rendering="geometricPrecision" shape-rendering="geometricPrecision" transform="matrix(1.4743,0,0,1.4523,984.7768,159)">
      <g clip-path="url(#clipPath4)">
        <svg xmlns:svg="http://www.w3.org/2000/svg" xmlns:sodipodi="http://sodipodi.sourceforge.net/DTD/sodipodi-0.dtd" xmlns:inkscape="http://www.inkscape.org/namespaces/inkscape" xmlns:dc="http://purl.org/dc/elements/1.1/" xmlns:cc="http://web.resource.org/cc/" xmlns:rdf="http://www.w3.org/1999/02/22-rdf-syntax-ns#" opacity="1" writing-mode="lr-tb" stop-color="rgb(0, 0, 0)" shape-rendering="auto" glyph-orientation-horizontal="0deg" color-profile="auto" lighting-color="rgb(255, 255, 255)" color="rgb(0, 0, 0)" font-weight="400" alignment-baseline="auto" font-style="normal" version="1.0" color-interpolation-filters="linearrgb" text-anchor="start" stroke-linecap="butt" color-interpolation="srgb" font-variant="normal" word-spacing="normal" fill-opacity="1" text-rendering="auto" clip-path="none" text-decoration="none" letter-spacing="normal" glyph-orientation-vertical="auto" display="inline" font-size-adjust="none" overflow="hidden" fill="rgb(0, 0, 0)" font-stretch="normal" stroke-dasharray="none" inkscape:version="0.45.1" id="svg2.svg2" stroke-miterlimit="4" stop-opacity="1" color-rendering="auto" font-size="12" sodipodi:docbase="C:\Daten\alberts\projects\yfx" pointer-events="visiblepainted" mask="none" direction="ltr" baseline-shift="baseline" sodipodi:docname="uml_actor.svg" enable-background="accumulate" fill-rule="nonzero" image-rendering="auto" stroke-dashoffset="0" inkscape:output_extension="org.inkscape.output.svg.inkscape" marker-end="none" width="41" clip="auto" cursor="auto" stroke="none" filter="none" visibility="visible" kerning="auto" stroke-width="1" font-family="&quot;Arial&quot;,&quot;Helvetica&quot;,sans-serif" flood-opacity="1" clip-rule="nonzero" src="none" height="68.997391" unicode-bidi="normal" sodipodi:version="0.32" stroke-linejoin="miter" stroke-opacity="1" flood-color="rgb(0, 0, 0)" dominant-baseline="auto" marker-start="none" marker-mid="none">
  <defs id="svg2.defs4"/>
  
  <metadata id="svg2.metadata7">
    
  </metadata>
  <g inkscape:groupmode="layer" id="svg2.layer1" transform="translate(-29.5,-42.959476)" inkscape:label="Ebene 1">
    <a id="svg2.a3142" transform="matrix(1.0873906,0,0,1,-4.4741999,0)">
      <path transform="translate(11.586889,5.2908993)" style="fill:none;fill-rule:evenodd;stroke:#000000;stroke-width:1px;stroke-linecap:butt;stroke-linejoin:miter;stroke-opacity:1" sodipodi:cx="38.509369" sodipodi:cy="47.36993" sodipodi:rx="8.5197716" id="svg2.path2160" d="M 47.02914 47.36993 A 8.5197716 9.2013531 0 1 1  29.989597,47.36993 A 8.5197716 9.2013531 0 1 1  47.02914 47.36993 z" sodipodi:ry="9.2013531" sodipodi:type="arc"/>
    </a>
    <path style="fill:none" sodipodi:cx="43.962021" sodipodi:cy="48.392303" d="M 47.71072 48.392303 A 3.7486994 0 0 1 1  40.213321,48.392303 A 3.7486994 0 0 1 1  47.71072 48.392303 z" id="svg2.path3134" sodipodi:rx="3.7486994" sodipodi:ry="0" sodipodi:type="arc"/>
    <path style="fill:none;fill-rule:evenodd;stroke:#000000;stroke-width:1.24319649px;stroke-linecap:butt;stroke-linejoin:miter;stroke-opacity:1" d="M 50,61.33709 C 50,91.363211 50,92.247838 50,92.247838" id="svg2.path3136"/>
    <path style="fill:none;fill-rule:evenodd;stroke:#000000;stroke-width:1px;stroke-linecap:butt;stroke-linejoin:miter;stroke-opacity:1" d="M 69.760668,72.362183 C 69.760668,72.362183 69.760668,72.362183 50.239332,72.362183 C 30.239332,72.362183 30.239332,72.362183 30.239332,72.362183 L 30.239332,72.362183" id="svg2.path3138"/>
    <path style="fill:none;fill-rule:evenodd;stroke:#000000;stroke-width:1px;stroke-linecap:butt;stroke-linejoin:miter;stroke-opacity:1" d="M 30,111.45687 C 30,111.45687 30,111.45687 50,92.013532 C 70,111.45687 70,111.45687 70,111.45687" id="svg2.path3140"/>
  </g>
</svg>
      </g>
    </g>
    <g font-size="13" stroke-linecap="butt" transform="matrix(1,0,0,1,-67,-61)" text-rendering="geometricPrecision" font-family="sans-serif" shape-rendering="geometricPrecision" stroke-miterlimit="1.45">
      <text x="1041.8892" xml:space="preserve" y="339.0698" clip-path="url(#clipPath2)" stroke="none">Stakeholder 2</text>
    </g>
    <g fill="url(#linearGradient2)" text-rendering="geometricPrecision" shape-rendering="geometricPrecision" transform="matrix(1,0,0,1,-67,-61)" stroke="url(#linearGradient2)">
      <path d="M253 249 L568 249 L568 299 L253 299 Z" stroke="none" clip-path="url(#clipPath2)"/>
    </g>
    <g text-rendering="geometricPrecision" stroke-miterlimit="1.45" shape-rendering="geometricPrecision" transform="matrix(1,0,0,1,-67,-61)" stroke-linecap="butt">
      <path fill="none" d="M253 249 L568 249 L568 299 L253 299 Z" clip-path="url(#clipPath2)"/>
      <text x="349.4688" xml:space="preserve" y="278.7139" clip-path="url(#clipPath2)" font-family="sans-serif" stroke="none">Management Assistant</text>
    </g>
    <g fill="url(#linearGradient3)" text-rendering="geometricPrecision" shape-rendering="geometricPrecision" transform="matrix(1,0,0,1,-67,-61)" stroke="url(#linearGradient3)">
      <path d="M687 249 L961 249 L961 299 L687 299 Z" stroke="none" clip-path="url(#clipPath2)"/>
    </g>
    <g text-rendering="geometricPrecision" stroke-miterlimit="1.45" shape-rendering="geometricPrecision" transform="matrix(1,0,0,1,-67,-61)" stroke-linecap="butt">
      <path fill="none" d="M687 249 L961 249 L961 299 L687 299 Z" clip-path="url(#clipPath2)"/>
      <text x="779.3135" xml:space="preserve" y="278.7139" clip-path="url(#clipPath2)" font-family="sans-serif" stroke="none">Tax Consultancy</text>
    </g>
    <g fill="url(#linearGradient4)" text-rendering="geometricPrecision" shape-rendering="geometricPrecision" transform="matrix(1,0,0,1,-67,-61)" stroke="url(#linearGradient4)">
      <path d="M449 107 L709 107 L709 157 L449 157 Z" stroke="none" clip-path="url(#clipPath2)"/>
    </g>
    <g text-rendering="geometricPrecision" stroke-miterlimit="1.45" shape-rendering="geometricPrecision" transform="matrix(1,0,0,1,-67,-61)" stroke-linecap="butt">
      <path fill="none" d="M449 107 L709 107 L709 157 L449 157 Z" clip-path="url(#clipPath2)"/>
      <text x="512.3145" xml:space="preserve" y="136.7139" clip-path="url(#clipPath2)" font-family="sans-serif" stroke="none">Commercial  Professions</text>
    </g>
    <g fill="url(#linearGradient5)" text-rendering="geometricPrecision" shape-rendering="geometricPrecision" transform="matrix(1,0,0,1,-67,-61)" stroke="url(#linearGradient5)">
      <path d="M769 107 L994 107 L994 157 L769 157 Z" stroke="none" clip-path="url(#clipPath2)"/>
    </g>
    <g text-rendering="geometricPrecision" stroke-miterlimit="1.45" shape-rendering="geometricPrecision" transform="matrix(1,0,0,1,-67,-61)" stroke-linecap="butt">
      <path fill="none" d="M769 107 L994 107 L994 157 L769 157 Z" clip-path="url(#clipPath2)"/>
      <text x="832.8145" xml:space="preserve" y="136.7139" clip-path="url(#clipPath2)" font-family="sans-serif" stroke="none">Financial Services</text>
    </g>
    <g fill="url(#linearGradient6)" text-rendering="geometricPrecision" shape-rendering="geometricPrecision" transform="matrix(1,0,0,1,-67,-61)" stroke="url(#linearGradient6)">
      <path d="M253 373 L568 373 L568 423 L253 423 Z" stroke="none" clip-path="url(#clipPath2)"/>
    </g>
    <g text-rendering="geometricPrecision" stroke-miterlimit="1.45" shape-rendering="geometricPrecision" transform="matrix(1,0,0,1,-67,-61)" stroke-linecap="butt">
      <path fill="none" d="M253 373 L568 373 L568 423 L253 423 Z" clip-path="url(#clipPath2)"/>
      <text x="317.4678" xml:space="preserve" y="402.7139" clip-path="url(#clipPath2)" font-family="sans-serif" stroke="none">Management Assistant IT-Systems</text>
    </g>
    <g fill="url(#linearGradient7)" text-rendering="geometricPrecision" shape-rendering="geometricPrecision" transform="matrix(1,0,0,1,-67,-61)" stroke="url(#linearGradient7)">
      <path d="M687 373 L961 373 L961 423 L687 423 Z" stroke="none" clip-path="url(#clipPath2)"/>
    </g>
    <g text-rendering="geometricPrecision" stroke-miterlimit="1.45" shape-rendering="geometricPrecision" transform="matrix(1,0,0,1,-67,-61)" stroke-linecap="butt">
      <path fill="none" d="M687 373 L961 373 L961 423 L687 423 Z" clip-path="url(#clipPath2)"/>
      <text x="757.6367" xml:space="preserve" y="402.7139" clip-path="url(#clipPath2)" font-family="sans-serif" stroke="none">Assistant Tax Consultant</text>
    </g>
    <g fill="url(#linearGradient8)" text-rendering="geometricPrecision" shape-rendering="geometricPrecision" transform="matrix(1,0,0,1,-67,-61)" stroke="url(#linearGradient8)">
      <path d="M516 534 L701 534 L701 574 L516 574 Z" stroke="none" clip-path="url(#clipPath2)"/>
    </g>
    <g text-rendering="geometricPrecision" stroke-miterlimit="1.45" shape-rendering="geometricPrecision" transform="matrix(1,0,0,1,-67,-61)" stroke-linecap="butt">
      <path fill="none" d="M516 534 L701 534 L701 574 L516 574 Z" clip-path="url(#clipPath2)"/>
      <text x="573.8066" xml:space="preserve" y="558.7139" clip-path="url(#clipPath2)" font-family="sans-serif" stroke="none">Bookkeeping</text>
    </g>
    <g text-rendering="geometricPrecision" stroke-miterlimit="1.45" shape-rendering="geometricPrecision" transform="matrix(1,0,0,1,-67,-61)" stroke-linecap="butt">
      <path fill="none" d="M440.1808 248.9871 L543.2276 162.1465" clip-path="url(#clipPath2)"/>
    </g>
    <g text-rendering="geometricPrecision" stroke-miterlimit="1.45" shape-rendering="geometricPrecision" transform="matrix(1,0,0,1,-67,-61)" stroke-linecap="butt">
      <path d="M549.345 156.9911 L536.9468 160.9007 L542.463 162.7909 L543.391 168.5475 Z" stroke="none" clip-path="url(#clipPath2)"/>
      <path fill="none" d="M780.8439 248.9871 L629.0646 161.017" clip-path="url(#clipPath2)"/>
      <path d="M622.1431 157.0054 L630.0181 167.3488 L629.9298 161.5185 L635.0326 158.6969 Z" clip-path="url(#clipPath2)" stroke="none"/>
      <path fill="none" d="M834.1215 249.0044 L868.3762 164.41" clip-path="url(#clipPath2)"/>
      <path d="M871.3788 156.9948 L862.2404 166.2409 L868.0009 165.3369 L871.5093 169.9942 Z" clip-path="url(#clipPath2)" stroke="none"/>
      <path fill="none" d="M410.5 373.0244 L410.5 306.9979" clip-path="url(#clipPath2)"/>
      <path d="M410.5 298.9979 L405.5 310.9979 L410.5 307.9979 L415.5 310.9979 Z" clip-path="url(#clipPath2)" stroke="none"/>
      <path fill="none" d="M824 373.0244 L824 306.9979" clip-path="url(#clipPath2)"/>
      <path d="M824 298.9979 L819 310.9979 L824 307.9979 L829 310.9979 Z" clip-path="url(#clipPath2)" stroke="none"/>
      <path fill="none" d="M583.0974 533.9858 L448.5349 427.9669" clip-path="url(#clipPath2)"/>
      <path d="M442.251 423.016 L448.5826 434.3699 L449.3204 428.5858 L454.7713 426.515 Z" clip-path="url(#clipPath2)" stroke="none"/>
      <path fill="none" d="M636.1478 533.9858 L782.9625 427.707" clip-path="url(#clipPath2)" stroke="red"/>
      <path fill="red" d="M789.4427 423.0159 L776.7904 426.0024 L782.1525 428.2934 L782.6543 434.1027 Z" clip-path="url(#clipPath2)" stroke="none"/>
    </g>
  </g>
</svg>
