<?xml version="1.0" encoding="UTF-8"?><svg xmlns="http://www.w3.org/2000/svg" xmlns:xlink="http://www.w3.org/1999/xlink" fill-opacity="1" color-rendering="auto" color-interpolation="auto" stroke="black" text-rendering="auto" stroke-linecap="square" width="359" stroke-miterlimit="10" stroke-opacity="1" shape-rendering="auto" fill="black" stroke-dasharray="none" font-weight="normal" stroke-width="1" height="220" font-family="'Dialog'" font-style="normal" stroke-linejoin="miter" font-size="12" stroke-dashoffset="0" image-rendering="auto">
  <!--Generated by ySVG-->
  <defs id="genericDefs"/>
  <g>
    <defs id="defs1">
      <clipPath clipPathUnits="userSpaceOnUse" id="clipPath1">
        <path d="M0 0 L359 0 L359 220 L0 220 L0 0 Z"/>
      </clipPath>
      <clipPath clipPathUnits="userSpaceOnUse" id="clipPath2">
        <path d="M312 151 L671 151 L671 371 L312 371 L312 151 Z"/>
      </clipPath>
    </defs>
    <g fill="white" transform="translate(-312,-151)" stroke="white">
      <rect x="312" width="359" height="220" y="151" clip-path="url(#clipPath2)" stroke="none"/>
    </g>
    <g fill="silver" transform="matrix(1,0,0,1,-312,-151)" stroke="silver">
      <rect x="327" y="190" clip-path="url(#clipPath2)" width="145" rx="4" ry="4" height="41" stroke="none"/>
    </g>
    <g stroke-miterlimit="1.45" font-family="sans-serif" transform="matrix(1,0,0,1,-312,-151)" stroke-linecap="butt">
      <text x="343.9502" xml:space="preserve" y="214.6543" clip-path="url(#clipPath2)" stroke="none">Learning Outcome</text>
      <rect x="327" y="190" clip-path="url(#clipPath2)" fill="none" width="145" rx="4" ry="4" height="41"/>
    </g>
    <g fill="rgb(251,194,194)" transform="matrix(1,0,0,1,-312,-151)" stroke="rgb(251,194,194)">
      <rect x="530" y="166" clip-path="url(#clipPath2)" width="126" rx="4" ry="4" height="30" stroke="none"/>
    </g>
    <g stroke-miterlimit="1.45" font-family="sans-serif" transform="matrix(1,0,0,1,-312,-151)" stroke-linecap="butt">
      <text x="558.8281" xml:space="preserve" y="185.1543" clip-path="url(#clipPath2)" stroke="none">Description</text>
      <rect x="530" y="166" clip-path="url(#clipPath2)" fill="none" width="126" rx="4" ry="4" height="30"/>
    </g>
    <g fill="rgb(219,229,241)" transform="matrix(1,0,0,1,-312,-151)" stroke="rgb(219,229,241)">
      <rect x="538" y="246" clip-path="url(#clipPath2)" width="90" rx="4" ry="4" height="30" stroke="none"/>
    </g>
    <g stroke-miterlimit="1.45" font-family="sans-serif" transform="matrix(1,0,0,1,-312,-151)" stroke-linecap="butt">
      <text x="553.3896" xml:space="preserve" y="265.1543" clip-path="url(#clipPath2)" stroke="none">Language</text>
      <rect x="538" y="246" clip-path="url(#clipPath2)" fill="none" width="90" rx="4" ry="4" height="30"/>
    </g>
    <g fill="rgb(195,214,155)" transform="matrix(1,0,0,1,-312,-151)" stroke="rgb(195,214,155)">
      <rect x="538" y="326" clip-path="url(#clipPath2)" width="90" rx="4" ry="4" height="30" stroke="none"/>
    </g>
    <g stroke-miterlimit="1.45" font-family="sans-serif" transform="matrix(1,0,0,1,-312,-151)" stroke-linecap="butt">
      <text x="560.4707" xml:space="preserve" y="345.1543" clip-path="url(#clipPath2)" stroke="none">Version</text>
      <rect x="538" y="326" clip-path="url(#clipPath2)" fill="none" width="90" rx="4" ry="4" height="30"/>
      <path fill="none" d="M472.0153 199.4447 L522.0883 191.8108" clip-path="url(#clipPath2)"/>
      <path d="M529.9969 190.6051 L517.3804 187.4708 L521.0997 191.9615 L518.8876 197.3566 Z" clip-path="url(#clipPath2)" stroke="none"/>
      <path fill="none" d="M470.5973 230.0663 L530.5287 246.5597" clip-path="url(#clipPath2)"/>
      <path d="M538.242 248.6824 L527.9988 240.6775 L529.5646 246.2943 L525.3455 250.3191 Z" clip-path="url(#clipPath2)" stroke="none"/>
      <path fill="none" d="M428.3287 231.0021 L555.3718 321.3516" clip-path="url(#clipPath2)"/>
      <path d="M561.8913 325.9881 L555.0099 314.9587 L554.5569 320.7721 L549.2144 323.1081 Z" clip-path="url(#clipPath2)" stroke="none"/>
    </g>
  </g>
</svg>
