<?xml version="1.0" encoding="UTF-8"?><svg xmlns="http://www.w3.org/2000/svg" xmlns:xlink="http://www.w3.org/1999/xlink" fill-opacity="1" color-rendering="auto" color-interpolation="auto" stroke="black" text-rendering="auto" stroke-linecap="square" width="1016" stroke-miterlimit="10" stroke-opacity="1" shape-rendering="auto" fill="black" stroke-dasharray="none" font-weight="normal" stroke-width="1" height="513" font-family="'Dialog'" font-style="normal" stroke-linejoin="miter" font-size="12" stroke-dashoffset="0" image-rendering="auto">
  <!--Generated by ySVG-->
  <defs id="genericDefs"/>
  <g>
    <g fill="white" transform="translate(80,-116)" stroke="white">
      <rect x="-80" width="1016" height="513" y="116" clip-path="url(#clipPath2)" stroke="none"/>
    </g>
    <g fill="rgb(219,229,241)" transform="matrix(1,0,0,1,80,-116)" stroke="rgb(219,229,241)">
      <rect x="146" y="219" clip-path="url(#clipPath2)" width="287" rx="4" ry="4" height="30" stroke="none"/>
    </g>
    <g stroke-miterlimit="1.45" font-family="sans-serif" transform="matrix(1,0,0,1,80,-116)" stroke-linecap="butt">
      <text x="217.4971" xml:space="preserve" y="238.1543" clip-path="url(#clipPath2)" stroke="none">Commercial Professions</text>
      <rect x="146" y="219" clip-path="url(#clipPath2)" fill="none" width="287" rx="4" ry="4" height="30"/>
    </g>
    <g fill="rgb(219,229,241)" transform="matrix(1,0,0,1,80,-116)" stroke="rgb(219,229,241)">
      <rect x="92" y="316" clip-path="url(#clipPath2)" width="287" rx="4" ry="4" height="30" stroke="none"/>
    </g>
    <g stroke-miterlimit="1.45" font-family="sans-serif" transform="matrix(1,0,0,1,80,-116)" stroke-linecap="butt">
      <text x="166.7344" xml:space="preserve" y="335.1543" clip-path="url(#clipPath2)" stroke="none">Management Assistant</text>
      <rect x="92" y="316" clip-path="url(#clipPath2)" fill="none" width="287" rx="4" ry="4" height="30"/>
    </g>
    <g fill="rgb(219,229,241)" transform="matrix(1,0,0,1,80,-116)" stroke="rgb(219,229,241)">
      <rect x="92" y="386" clip-path="url(#clipPath2)" width="287" rx="4" ry="4" height="30" stroke="none"/>
    </g>
    <g stroke-miterlimit="1.45" font-family="sans-serif" transform="matrix(1,0,0,1,80,-116)" stroke-linecap="butt">
      <text x="131.7275" xml:space="preserve" y="405.1543" clip-path="url(#clipPath2)" stroke="none">Management Assistant IT-Systems</text>
      <rect x="92" y="386" clip-path="url(#clipPath2)" fill="none" width="287" rx="4" ry="4" height="30"/>
    </g>
    <g fill="rgb(219,229,241)" transform="matrix(1,0,0,1,80,-116)" stroke="rgb(219,229,241)">
      <rect x="488" y="226" clip-path="url(#clipPath2)" width="287" rx="4" ry="4" height="30" stroke="none"/>
    </g>
    <g stroke-miterlimit="1.45" font-family="sans-serif" transform="matrix(1,0,0,1,80,-116)" stroke-linecap="butt">
      <text x="577.582" xml:space="preserve" y="245.1543" clip-path="url(#clipPath2)" stroke="none">Financial Services</text>
      <rect x="488" y="226" clip-path="url(#clipPath2)" fill="none" width="287" rx="4" ry="4" height="30"/>
    </g>
    <g fill="rgb(219,229,241)" transform="matrix(1,0,0,1,80,-116)" stroke="rgb(219,229,241)">
      <rect x="458" y="316" clip-path="url(#clipPath2)" width="287" rx="4" ry="4" height="30" stroke="none"/>
    </g>
    <g stroke-miterlimit="1.45" font-family="sans-serif" transform="matrix(1,0,0,1,80,-116)" stroke-linecap="butt">
      <text x="551.7598" xml:space="preserve" y="335.1543" clip-path="url(#clipPath2)" stroke="none">Tax Consultancy</text>
      <rect x="458" y="316" clip-path="url(#clipPath2)" fill="none" width="287" rx="4" ry="4" height="30"/>
    </g>
    <g fill="rgb(219,229,241)" transform="matrix(1,0,0,1,80,-116)" stroke="rgb(219,229,241)">
      <rect x="458" y="386" clip-path="url(#clipPath2)" width="287" rx="4" ry="4" height="30" stroke="none"/>
    </g>
    <g stroke-miterlimit="1.45" font-family="sans-serif" transform="matrix(1,0,0,1,80,-116)" stroke-linecap="butt">
      <text x="529.3682" xml:space="preserve" y="405.1543" clip-path="url(#clipPath2)" stroke="none">Assistant Tax Consulant</text>
      <rect x="458" y="386" clip-path="url(#clipPath2)" fill="none" width="287" rx="4" ry="4" height="30"/>
    </g>
    <g fill="rgb(195,214,155)" transform="matrix(1,0,0,1,80,-116)" stroke="rgb(195,214,155)">
      <rect x="354" y="511" clip-path="url(#clipPath2)" width="128" rx="4" ry="4" height="72" stroke="none"/>
    </g>
    <g stroke-miterlimit="1.45" font-family="sans-serif" transform="matrix(1,0,0,1,80,-116)" stroke-linecap="butt">
      <text x="379.123" xml:space="preserve" y="551.1543" clip-path="url(#clipPath2)" stroke="none">Bookkeeping</text>
      <rect x="354" y="511" clip-path="url(#clipPath2)" fill="none" width="128" rx="4" ry="4" height="72"/>
    </g>
    <g transform="matrix(1.4743,0,0,1.4523,32.7767,165)">
      <g clip-path="url(#clipPath3)">
        <svg xmlns:svg="http://www.w3.org/2000/svg" xmlns:sodipodi="http://sodipodi.sourceforge.net/DTD/sodipodi-0.dtd" xmlns:inkscape="http://www.inkscape.org/namespaces/inkscape" xmlns:dc="http://purl.org/dc/elements/1.1/" xmlns:cc="http://web.resource.org/cc/" xmlns:rdf="http://www.w3.org/1999/02/22-rdf-syntax-ns#" opacity="1" margin-top="0" indent="0" writing-mode="lr-tb" stop-color="rgb(0, 0, 0)" shape-rendering="auto" glyph-orientation-horizontal="0deg" color-profile="auto" lighting-color="rgb(255, 255, 255)" color="rgb(0, 0, 0)" xml:id="svg1.svg2" font-weight="400" alignment-baseline="auto" font-style="normal" version="1.0" color-interpolation-filters="linearrgb" text-anchor="start" stroke-linecap="butt" color-interpolation="srgb" font-variant="normal" margin-left="0" solid-color="rgb(0, 0, 0)" word-spacing="normal" fill-opacity="1" text-rendering="auto" clip-path="none" text-decoration="none" letter-spacing="normal" glyph-orientation-vertical="auto" margin-right="0" display="inline" font-size-adjust="none" margin-bottom="0" overflow="visible" fill="rgb(0, 0, 0)" font-stretch="normal" stroke-dasharray="none" inkscape:version="0.45.1" id="svg1.svg2" stroke-miterlimit="4" stop-opacity="1" color-rendering="auto" font-size="12" sodipodi:docbase="C:\Daten\alberts\projects\yfx" pointer-events="visiblepainted" mask="none" direction="ltr" baseline-shift="baseline" sodipodi:docname="uml_actor.svg" enable-background="accumulate" fill-rule="nonzero" image-rendering="auto" solid-opacity="1" stroke-dashoffset="0" inkscape:output_extension="org.inkscape.output.svg.inkscape" marker-end="none" width="41" clip="auto" cursor="auto" stroke="none" filter="none" visibility="visible" kerning="auto" stroke-width="1" font-family="&quot;Arial&quot;,&quot;Helvetica&quot;,sans-serif" flood-opacity="1" clip-rule="nonzero" src="none" height="68.997391" text-align="inherit" line-height="normal" unicode-bidi="normal" sodipodi:version="0.32" stroke-linejoin="miter" stroke-opacity="1" flood-color="rgb(0, 0, 0)" dominant-baseline="auto" marker-start="none" marker-mid="none">
  <defs id="svg1.defs4" xml:id="svg1.defs4">
            <clipPath clipPathUnits="userSpaceOnUse" id="clipPath1">
              <path d="M0 0 L1016 0 L1016 513 L0 513 L0 0 Z"/>
            </clipPath>
            <clipPath clipPathUnits="userSpaceOnUse" id="clipPath2">
              <path d="M-80 116 L936 116 L936 629 L-80 629 L-80 116 Z"/>
            </clipPath>
            <clipPath clipPathUnits="userSpaceOnUse" id="clipPath3">
              <path d="M-22.2319 -113.6122 L666.9049 -113.6122 L666.9049 239.6185 L-22.2319 239.6185 L-22.2319 -113.6122 Z"/>
            </clipPath>
            <clipPath clipPathUnits="userSpaceOnUse" id="clipPath4">
              <path d="M-626.1699 -107.8025 L62.967 -107.8025 L62.967 245.4282 L-626.1699 245.4282 L-626.1699 -107.8025 Z"/>
            </clipPath>
          </defs>
  
  <metadata id="svg1.metadata7" xml:id="svg1.metadata7">
    
  </metadata>
  <g inkscape:groupmode="layer" id="svg1.layer1" xml:id="svg1.layer1" transform="translate(-29.5,-42.959476)" inkscape:label="Ebene 1">
    <a xml:id="svg1.a3142" id="svg1.a3142" transform="matrix(1.0873906,0,0,1,-4.4741999,0)">
      <path transform="translate(11.586889,5.2908993)" style="fill:none;fill-rule:evenodd;stroke:#000000;stroke-width:1px;stroke-linecap:butt;stroke-linejoin:miter;stroke-opacity:1" sodipodi:cx="38.509369" sodipodi:cy="47.36993" sodipodi:rx="8.5197716" id="svg1.path2160" d="M 47.02914 47.36993 A 8.5197716 9.2013531 0 1 1  29.989597,47.36993 A 8.5197716 9.2013531 0 1 1  47.02914 47.36993 z" sodipodi:ry="9.2013531" xml:id="svg1.path2160" sodipodi:type="arc"/>
    </a>
    <path style="fill:none" sodipodi:cx="43.962021" sodipodi:cy="48.392303" d="M 47.71072 48.392303 A 3.7486994 0 0 1 1  40.213321,48.392303 A 3.7486994 0 0 1 1  47.71072 48.392303 z" sodipodi:rx="3.7486994" id="svg1.path3134" sodipodi:ry="0" xml:id="svg1.path3134" sodipodi:type="arc"/>
    <path d="M 50,61.33709 C 50,91.363211 50,92.247838 50,92.247838" id="svg1.path3136" style="fill:none;fill-rule:evenodd;stroke:#000000;stroke-width:1.24319649px;stroke-linecap:butt;stroke-linejoin:miter;stroke-opacity:1" xml:id="svg1.path3136"/>
    <path d="M 69.760668,72.362183 C 69.760668,72.362183 69.760668,72.362183 50.239332,72.362183 C 30.239332,72.362183 30.239332,72.362183 30.239332,72.362183 L 30.239332,72.362183" id="svg1.path3138" style="fill:none;fill-rule:evenodd;stroke:#000000;stroke-width:1px;stroke-linecap:butt;stroke-linejoin:miter;stroke-opacity:1" xml:id="svg1.path3138"/>
    <path d="M 30,111.45687 C 30,111.45687 30,111.45687 50,92.013532 C 70,111.45687 70,111.45687 70,111.45687" id="svg1.path3140" style="fill:none;fill-rule:evenodd;stroke:#000000;stroke-width:1px;stroke-linecap:butt;stroke-linejoin:miter;stroke-opacity:1" xml:id="svg1.path3140"/>
  </g>
</svg>
      </g>
    </g>
    <g font-size="13" stroke-miterlimit="1.45" font-family="sans-serif" transform="matrix(1,0,0,1,80,-116)" stroke-linecap="butt">
      <text x="-62.3223" xml:space="preserve" y="399.0669" clip-path="url(#clipPath2)" stroke="none">Stakeholder 1</text>
    </g>
    <g transform="matrix(1.4743,0,0,1.4523,923.1673,156.5625)">
      <g clip-path="url(#clipPath4)">
        <svg xmlns:svg="http://www.w3.org/2000/svg" xmlns:sodipodi="http://sodipodi.sourceforge.net/DTD/sodipodi-0.dtd" xmlns:inkscape="http://www.inkscape.org/namespaces/inkscape" xmlns:dc="http://purl.org/dc/elements/1.1/" xmlns:cc="http://web.resource.org/cc/" xmlns:rdf="http://www.w3.org/1999/02/22-rdf-syntax-ns#" opacity="1" margin-top="0" indent="0" writing-mode="lr-tb" stop-color="rgb(0, 0, 0)" shape-rendering="auto" glyph-orientation-horizontal="0deg" color-profile="auto" lighting-color="rgb(255, 255, 255)" color="rgb(0, 0, 0)" xml:id="svg2.svg2" font-weight="400" alignment-baseline="auto" font-style="normal" version="1.0" color-interpolation-filters="linearrgb" text-anchor="start" stroke-linecap="butt" color-interpolation="srgb" font-variant="normal" margin-left="0" solid-color="rgb(0, 0, 0)" word-spacing="normal" fill-opacity="1" text-rendering="auto" clip-path="none" text-decoration="none" letter-spacing="normal" glyph-orientation-vertical="auto" margin-right="0" display="inline" font-size-adjust="none" margin-bottom="0" overflow="visible" fill="rgb(0, 0, 0)" font-stretch="normal" stroke-dasharray="none" inkscape:version="0.45.1" id="svg2.svg2" stroke-miterlimit="4" stop-opacity="1" color-rendering="auto" font-size="12" sodipodi:docbase="C:\Daten\alberts\projects\yfx" pointer-events="visiblepainted" mask="none" direction="ltr" baseline-shift="baseline" sodipodi:docname="uml_actor.svg" enable-background="accumulate" fill-rule="nonzero" image-rendering="auto" solid-opacity="1" stroke-dashoffset="0" inkscape:output_extension="org.inkscape.output.svg.inkscape" marker-end="none" width="41" clip="auto" cursor="auto" stroke="none" filter="none" visibility="visible" kerning="auto" stroke-width="1" font-family="&quot;Arial&quot;,&quot;Helvetica&quot;,sans-serif" flood-opacity="1" clip-rule="nonzero" src="none" height="68.997391" text-align="inherit" line-height="normal" unicode-bidi="normal" sodipodi:version="0.32" stroke-linejoin="miter" stroke-opacity="1" flood-color="rgb(0, 0, 0)" dominant-baseline="auto" marker-start="none" marker-mid="none">
  <defs id="svg2.defs4" xml:id="svg2.defs4"/>
  
  <metadata id="svg2.metadata7" xml:id="svg2.metadata7">
    
  </metadata>
  <g inkscape:groupmode="layer" id="svg2.layer1" xml:id="svg2.layer1" transform="translate(-29.5,-42.959476)" inkscape:label="Ebene 1">
    <a xml:id="svg2.a3142" id="svg2.a3142" transform="matrix(1.0873906,0,0,1,-4.4741999,0)">
      <path transform="translate(11.586889,5.2908993)" style="fill:none;fill-rule:evenodd;stroke:#000000;stroke-width:1px;stroke-linecap:butt;stroke-linejoin:miter;stroke-opacity:1" sodipodi:cx="38.509369" sodipodi:cy="47.36993" sodipodi:rx="8.5197716" id="svg2.path2160" d="M 47.02914 47.36993 A 8.5197716 9.2013531 0 1 1  29.989597,47.36993 A 8.5197716 9.2013531 0 1 1  47.02914 47.36993 z" sodipodi:ry="9.2013531" xml:id="svg2.path2160" sodipodi:type="arc"/>
    </a>
    <path style="fill:none" sodipodi:cx="43.962021" sodipodi:cy="48.392303" d="M 47.71072 48.392303 A 3.7486994 0 0 1 1  40.213321,48.392303 A 3.7486994 0 0 1 1  47.71072 48.392303 z" sodipodi:rx="3.7486994" id="svg2.path3134" sodipodi:ry="0" xml:id="svg2.path3134" sodipodi:type="arc"/>
    <path d="M 50,61.33709 C 50,91.363211 50,92.247838 50,92.247838" id="svg2.path3136" style="fill:none;fill-rule:evenodd;stroke:#000000;stroke-width:1.24319649px;stroke-linecap:butt;stroke-linejoin:miter;stroke-opacity:1" xml:id="svg2.path3136"/>
    <path d="M 69.760668,72.362183 C 69.760668,72.362183 69.760668,72.362183 50.239332,72.362183 C 30.239332,72.362183 30.239332,72.362183 30.239332,72.362183 L 30.239332,72.362183" id="svg2.path3138" style="fill:none;fill-rule:evenodd;stroke:#000000;stroke-width:1px;stroke-linecap:butt;stroke-linejoin:miter;stroke-opacity:1" xml:id="svg2.path3138"/>
    <path d="M 30,111.45687 C 30,111.45687 30,111.45687 50,92.013532 C 70,111.45687 70,111.45687 70,111.45687" id="svg2.path3140" style="fill:none;fill-rule:evenodd;stroke:#000000;stroke-width:1px;stroke-linecap:butt;stroke-linejoin:miter;stroke-opacity:1" xml:id="svg2.path3140"/>
  </g>
</svg>
      </g>
    </g>
    <g font-size="13" stroke-miterlimit="1.45" font-family="sans-serif" transform="matrix(1,0,0,1,80,-116)" stroke-linecap="butt">
      <text x="828.0684" xml:space="preserve" y="390.6294" clip-path="url(#clipPath2)" stroke="none">Stakeholder 2</text>
      <rect x="65.5" y="131.5156" clip-path="url(#clipPath2)" fill="none" width="736.25" rx="4" ry="4" height="481.5625"/>
      <path fill="none" d="M243.8452 316.0095 L277.2491 256.0063" clip-path="url(#clipPath2)"/>
      <path d="M281.1404 249.0164 L270.9348 257.0692 L276.7627 256.88 L279.6721 261.9332 Z" clip-path="url(#clipPath2)" stroke="none"/>
      <path fill="none" d="M235.5 385.9951 L235.5 354.0109" clip-path="url(#clipPath2)"/>
      <path d="M235.5 346.0109 L230.5 358.0109 L235.5 355.0109 L240.5 358.0109 Z" clip-path="url(#clipPath2)" stroke="none"/>
      <path fill="none" d="M553.2451 315.9977 L345.4003 251.3793" clip-path="url(#clipPath2)"/>
      <path d="M337.761 249.0042 L347.7356 257.3413 L346.3552 251.6761 L350.7044 247.7922 Z" clip-path="url(#clipPath2)" stroke="none"/>
      <path fill="none" d="M606.4951 316.0146 L623.9765 263.5704" clip-path="url(#clipPath2)"/>
      <path d="M626.5063 255.9809 L617.9682 265.784 L623.6603 264.5191 L627.455 268.9463 Z" clip-path="url(#clipPath2)" stroke="none"/>
      <path fill="none" d="M601.5 385.9951 L601.5 354.0109" clip-path="url(#clipPath2)"/>
      <path d="M601.5 346.0109 L596.5 358.0109 L601.5 355.0109 L606.5 358.0109 Z" clip-path="url(#clipPath2)" stroke="none"/>
    </g>
    <g fill="red" stroke-miterlimit="1.45" transform="matrix(1,0,0,1,80,-116)" stroke-linecap="butt" stroke="red">
      <path fill="none" d="M463.2254 511.0168 L576.3688 420.9954" clip-path="url(#clipPath2)"/>
      <path d="M582.629 416.0145 L570.1256 419.5732 L575.5862 421.618 L576.3517 427.3985 Z" clip-path="url(#clipPath2)" stroke="none"/>
      <path fill="none" d="M373.0211 511.0168 L260.5151 421.0121" clip-path="url(#clipPath2)" stroke="black"/>
      <path fill="black" d="M254.2681 416.0145 L260.5151 427.4152 L261.296 421.6367 L266.762 419.6065 Z" clip-path="url(#clipPath2)" stroke="none"/>
    </g>
  </g>
</svg>
