<?xml version="1.0" encoding="UTF-8"?><svg xmlns="http://www.w3.org/2000/svg" xmlns:xlink="http://www.w3.org/1999/xlink" fill-opacity="1" color-rendering="auto" color-interpolation="auto" text-rendering="auto" stroke="black" stroke-linecap="square" width="1363" stroke-miterlimit="10" shape-rendering="auto" stroke-opacity="1" fill="black" stroke-dasharray="none" font-weight="normal" stroke-width="1" height="1024" font-family="'Dialog'" font-style="normal" stroke-linejoin="miter" font-size="12" stroke-dashoffset="0" image-rendering="auto">
  <!--Generated by ySVG 2.5-->
  <defs id="genericDefs"/>
  <g>
    <defs id="defs1">
      <clipPath clipPathUnits="userSpaceOnUse" id="clipPath1">
        <path d="M0 0 L1363 0 L1363 1024 L0 1024 L0 0 Z"/>
      </clipPath>
      <clipPath clipPathUnits="userSpaceOnUse" id="clipPath2">
        <path d="M162 -113 L1525 -113 L1525 911 L162 911 L162 -113 Z"/>
      </clipPath>
    </defs>
    <g fill="white" text-rendering="geometricPrecision" shape-rendering="geometricPrecision" transform="translate(-162,113)" stroke="white">
      <rect x="162" width="1363" height="1024" y="-113" clip-path="url(#clipPath2)" stroke="none"/>
    </g>
    <g fill="rgb(255,204,0)" text-rendering="geometricPrecision" shape-rendering="geometricPrecision" transform="matrix(1,0,0,1,-162,113)" stroke="rgb(255,204,0)">
      <rect x="929.75" y="36.7812" clip-path="url(#clipPath2)" width="169" rx="4" ry="4" height="85" stroke="none"/>
    </g>
    <g text-rendering="geometricPrecision" stroke-miterlimit="1.45" shape-rendering="geometricPrecision" font-family="sans-serif" transform="matrix(1,0,0,1,-162,113)" stroke-linecap="butt">
      <text x="969.0303" xml:space="preserve" y="76.4512" clip-path="url(#clipPath2)" stroke="none">additional data</text>
      <text x="946.4072" xml:space="preserve" y="90.4199" clip-path="url(#clipPath2)" stroke="none">about the qualification</text>
      <rect x="929.75" y="36.7812" clip-path="url(#clipPath2)" fill="none" width="169" rx="4" ry="4" height="85"/>
    </g>
    <g fill="rgb(255,204,0)" text-rendering="geometricPrecision" shape-rendering="geometricPrecision" transform="matrix(1,0,0,1,-162,113)" stroke="rgb(255,204,0)">
      <rect x="1333.75" y="103.7812" clip-path="url(#clipPath2)" width="176" rx="4" ry="4" height="30" stroke="none"/>
    </g>
    <g text-rendering="geometricPrecision" stroke-miterlimit="1.45" shape-rendering="geometricPrecision" font-family="sans-serif" transform="matrix(1,0,0,1,-162,113)" stroke-linecap="butt">
      <text x="1403.6445" xml:space="preserve" y="122.9355" clip-path="url(#clipPath2)" stroke="none">usage</text>
      <rect x="1333.75" y="103.7812" clip-path="url(#clipPath2)" fill="none" width="176" rx="4" ry="4" height="30"/>
    </g>
    <g fill="rgb(255,204,0)" text-rendering="geometricPrecision" shape-rendering="geometricPrecision" transform="matrix(1,0,0,1,-162,113)" stroke="rgb(255,204,0)">
      <rect x="1148.75" y="64.2812" clip-path="url(#clipPath2)" width="176" rx="4" ry="4" height="30" stroke="none"/>
    </g>
    <g text-rendering="geometricPrecision" stroke-miterlimit="1.45" shape-rendering="geometricPrecision" font-family="sans-serif" transform="matrix(1,0,0,1,-162,113)" stroke-linecap="butt">
      <text x="1176.4893" xml:space="preserve" y="83.4355" clip-path="url(#clipPath2)" stroke="none">cultural background</text>
      <rect x="1148.75" y="64.2812" clip-path="url(#clipPath2)" fill="none" width="176" rx="4" ry="4" height="30"/>
    </g>
    <g fill="rgb(255,204,0)" text-rendering="geometricPrecision" shape-rendering="geometricPrecision" transform="matrix(1,0,0,1,-162,113)" stroke="rgb(255,204,0)">
      <rect x="1190.75" y="124.2812" clip-path="url(#clipPath2)" width="183" rx="4" ry="4" height="30" stroke="none"/>
    </g>
    <g text-rendering="geometricPrecision" stroke-miterlimit="1.45" shape-rendering="geometricPrecision" font-family="sans-serif" transform="matrix(1,0,0,1,-162,113)" stroke-linecap="butt">
      <text x="1255.5049" xml:space="preserve" y="143.4355" clip-path="url(#clipPath2)" stroke="none">statistics</text>
      <rect x="1190.75" y="124.2812" clip-path="url(#clipPath2)" fill="none" width="183" rx="4" ry="4" height="30"/>
    </g>
    <g fill="rgb(255,204,0)" text-rendering="geometricPrecision" shape-rendering="geometricPrecision" transform="matrix(1,0,0,1,-162,113)" stroke="rgb(255,204,0)">
      <rect x="1098.75" y="184.2812" clip-path="url(#clipPath2)" width="169" rx="4" ry="4" height="30" stroke="none"/>
    </g>
    <g text-rendering="geometricPrecision" stroke-miterlimit="1.45" shape-rendering="geometricPrecision" font-family="sans-serif" transform="matrix(1,0,0,1,-162,113)" stroke-linecap="butt">
      <text x="1127.9404" xml:space="preserve" y="203.4355" clip-path="url(#clipPath2)" stroke="none">chambers of trade</text>
      <rect x="1098.75" y="184.2812" clip-path="url(#clipPath2)" fill="none" width="169" rx="4" ry="4" height="30"/>
    </g>
    <g fill="rgb(255,204,0)" text-rendering="geometricPrecision" shape-rendering="geometricPrecision" transform="matrix(1,0,0,1,-162,113)" stroke="rgb(255,204,0)">
      <rect x="890.25" y="151.7812" clip-path="url(#clipPath2)" width="169" rx="4" ry="4" height="30" stroke="none"/>
    </g>
    <g text-rendering="geometricPrecision" stroke-miterlimit="1.45" shape-rendering="geometricPrecision" font-family="sans-serif" transform="matrix(1,0,0,1,-162,113)" stroke-linecap="butt">
      <text x="913.373" xml:space="preserve" y="170.9355" clip-path="url(#clipPath2)" stroke="none">national perspective</text>
      <rect x="890.25" y="151.7812" clip-path="url(#clipPath2)" fill="none" width="169" rx="4" ry="4" height="30"/>
    </g>
    <g fill="rgb(255,204,0)" text-rendering="geometricPrecision" shape-rendering="geometricPrecision" transform="matrix(1,0,0,1,-162,113)" stroke="rgb(255,204,0)">
      <rect x="915.75" y="314.7812" clip-path="url(#clipPath2)" width="176" rx="4" ry="4" height="67" stroke="none"/>
    </g>
    <g text-rendering="geometricPrecision" stroke-miterlimit="1.45" shape-rendering="geometricPrecision" font-family="sans-serif" transform="matrix(1,0,0,1,-162,113)" stroke-linecap="butt">
      <text x="988.999" xml:space="preserve" y="352.4355" clip-path="url(#clipPath2)" stroke="none">units</text>
      <rect x="915.75" y="314.7812" clip-path="url(#clipPath2)" fill="none" width="176" rx="4" ry="4" height="67"/>
    </g>
    <g fill="rgb(255,204,0)" text-rendering="geometricPrecision" shape-rendering="geometricPrecision" transform="matrix(1,0,0,1,-162,113)" stroke="rgb(255,204,0)">
      <rect x="887.75" y="254.2812" clip-path="url(#clipPath2)" width="169" rx="4" ry="4" height="85" stroke="none"/>
    </g>
    <g text-rendering="geometricPrecision" stroke-miterlimit="1.45" shape-rendering="geometricPrecision" font-family="sans-serif" transform="matrix(1,0,0,1,-162,113)" stroke-linecap="butt">
      <text x="935.3799" xml:space="preserve" y="300.9355" clip-path="url(#clipPath2)" stroke="none">qualification</text>
      <rect x="887.75" y="254.2812" clip-path="url(#clipPath2)" fill="none" width="169" rx="4" ry="4" height="85"/>
    </g>
    <g fill="rgb(255,204,0)" text-rendering="geometricPrecision" shape-rendering="geometricPrecision" transform="matrix(1,0,0,1,-162,113)" stroke="rgb(255,204,0)">
      <rect x="1295.75" y="316.7812" clip-path="url(#clipPath2)" width="157" rx="4" ry="4" height="30" stroke="none"/>
    </g>
    <g text-rendering="geometricPrecision" stroke-miterlimit="1.45" shape-rendering="geometricPrecision" font-family="sans-serif" transform="matrix(1,0,0,1,-162,113)" stroke-linecap="butt">
      <text x="1310.4004" xml:space="preserve" y="335.9355" clip-path="url(#clipPath2)" stroke="none">EQF-LEVEL (abstract)</text>
      <rect x="1295.75" y="316.7812" clip-path="url(#clipPath2)" fill="none" width="157" rx="4" ry="4" height="30"/>
    </g>
    <g fill="rgb(255,204,0)" text-rendering="geometricPrecision" shape-rendering="geometricPrecision" transform="matrix(1,0,0,1,-162,113)" stroke="rgb(255,204,0)">
      <rect x="1183.75" y="448.7812" clip-path="url(#clipPath2)" width="100" rx="4" ry="4" height="30" stroke="none"/>
    </g>
    <g text-rendering="geometricPrecision" stroke-miterlimit="1.45" shape-rendering="geometricPrecision" font-family="sans-serif" transform="matrix(1,0,0,1,-162,113)" stroke-linecap="butt">
      <text x="1204.2129" xml:space="preserve" y="467.9355" clip-path="url(#clipPath2)" stroke="none">indicators</text>
      <rect x="1183.75" y="448.7812" clip-path="url(#clipPath2)" fill="none" width="100" rx="4" ry="4" height="30"/>
    </g>
    <g fill="rgb(255,204,0)" text-rendering="geometricPrecision" shape-rendering="geometricPrecision" transform="matrix(1,0,0,1,-162,113)" stroke="rgb(255,204,0)">
      <rect x="948.75" y="369.2812" clip-path="url(#clipPath2)" width="176" rx="4" ry="4" height="67" stroke="none"/>
    </g>
    <g text-rendering="geometricPrecision" stroke-miterlimit="1.45" shape-rendering="geometricPrecision" font-family="sans-serif" transform="matrix(1,0,0,1,-162,113)" stroke-linecap="butt">
      <text x="980.8018" xml:space="preserve" y="406.9355" clip-path="url(#clipPath2)" stroke="none">learning outcomes</text>
      <rect x="948.75" y="369.2812" clip-path="url(#clipPath2)" fill="none" width="176" rx="4" ry="4" height="67"/>
    </g>
    <g fill="rgb(255,204,0)" text-rendering="geometricPrecision" shape-rendering="geometricPrecision" transform="matrix(1,0,0,1,-162,113)" stroke="rgb(255,204,0)">
      <rect x="1320.75" y="432.7812" clip-path="url(#clipPath2)" width="176" rx="4" ry="4" height="30" stroke="none"/>
    </g>
    <g text-rendering="geometricPrecision" stroke-miterlimit="1.45" shape-rendering="geometricPrecision" font-family="sans-serif" transform="matrix(1,0,0,1,-162,113)" stroke-linecap="butt">
      <text x="1336.5508" xml:space="preserve" y="451.9355" clip-path="url(#clipPath2)" stroke="none">to pass the qualification</text>
      <rect x="1320.75" y="432.7812" clip-path="url(#clipPath2)" fill="none" width="176" rx="4" ry="4" height="30"/>
    </g>
    <g fill="rgb(255,204,0)" text-rendering="geometricPrecision" shape-rendering="geometricPrecision" transform="matrix(1,0,0,1,-162,113)" stroke="rgb(255,204,0)">
      <rect x="1320.75" y="498.7812" clip-path="url(#clipPath2)" width="183" rx="4" ry="4" height="30" stroke="none"/>
    </g>
    <g text-rendering="geometricPrecision" stroke-miterlimit="1.45" shape-rendering="geometricPrecision" font-family="sans-serif" transform="matrix(1,0,0,1,-162,113)" stroke-linecap="butt">
      <text x="1335.2871" xml:space="preserve" y="517.9355" clip-path="url(#clipPath2)" stroke="none">to evaluate the user level</text>
      <rect x="1320.75" y="498.7812" clip-path="url(#clipPath2)" fill="none" width="183" rx="4" ry="4" height="30"/>
    </g>
    <g fill="rgb(255,204,0)" text-rendering="geometricPrecision" shape-rendering="geometricPrecision" transform="matrix(1,0,0,1,-162,113)" stroke="rgb(255,204,0)">
      <rect x="1161.25" y="396.7812" clip-path="url(#clipPath2)" width="157" rx="4" ry="4" height="30" stroke="none"/>
    </g>
    <g text-rendering="geometricPrecision" stroke-miterlimit="1.45" shape-rendering="geometricPrecision" font-family="sans-serif" transform="matrix(1,0,0,1,-162,113)" stroke-linecap="butt">
      <text x="1169.3467" xml:space="preserve" y="415.9355" clip-path="url(#clipPath2)" stroke="none">transfer to qualification</text>
      <rect x="1161.25" y="396.7812" clip-path="url(#clipPath2)" fill="none" width="157" rx="4" ry="4" height="30"/>
    </g>
    <g fill="rgb(255,204,0)" text-rendering="geometricPrecision" shape-rendering="geometricPrecision" transform="matrix(1,0,0,1,-162,113)" stroke="rgb(255,204,0)">
      <circle r="62.8516" clip-path="url(#clipPath2)" cx="389.2109" cy="201.6328" stroke="none"/>
    </g>
    <g text-rendering="geometricPrecision" stroke-miterlimit="1.45" shape-rendering="geometricPrecision" font-family="sans-serif" transform="matrix(1,0,0,1,-162,113)" stroke-linecap="butt">
      <text x="375.9717" xml:space="preserve" y="205.7871" clip-path="url(#clipPath2)" stroke="none">MoU</text>
      <circle fill="none" r="62.8516" clip-path="url(#clipPath2)" cx="389.2109" cy="201.6328"/>
    </g>
    <g fill="rgb(255,204,0)" text-rendering="geometricPrecision" shape-rendering="geometricPrecision" transform="matrix(1,0,0,1,-162,113)" stroke="rgb(255,204,0)">
      <rect x="198.4844" y="69.5938" clip-path="url(#clipPath2)" width="393.4062" rx="4" ry="4" height="39.1875" stroke="none"/>
    </g>
    <g text-rendering="geometricPrecision" stroke-miterlimit="1.45" shape-rendering="geometricPrecision" font-family="sans-serif" transform="matrix(1,0,0,1,-162,113)" stroke-linecap="butt">
      <text x="216.3535" xml:space="preserve" y="93.3418" clip-path="url(#clipPath2)" stroke="none">Countries / Organisations / Companies / Chambers of Trade</text>
      <rect x="198.4844" y="69.5938" clip-path="url(#clipPath2)" fill="none" width="393.4062" rx="4" ry="4" height="39.1875"/>
    </g>
    <g fill="rgb(255,204,0)" text-rendering="geometricPrecision" shape-rendering="geometricPrecision" transform="matrix(1,0,0,1,-162,113)" stroke="rgb(255,204,0)">
      <rect x="1121.75" y="271.7812" clip-path="url(#clipPath2)" width="243" rx="4" ry="4" height="23" stroke="none"/>
    </g>
    <g text-rendering="geometricPrecision" stroke-miterlimit="1.45" shape-rendering="geometricPrecision" font-family="sans-serif" transform="matrix(1,0,0,1,-162,113)" stroke-linecap="butt">
      <text x="1142.0176" xml:space="preserve" y="287.4355" clip-path="url(#clipPath2)" stroke="none">Knowledge / Skills / Competences</text>
      <rect x="1121.75" y="271.7812" clip-path="url(#clipPath2)" fill="none" width="243" rx="4" ry="4" height="23"/>
    </g>
    <g fill="rgb(255,204,0)" text-rendering="geometricPrecision" shape-rendering="geometricPrecision" transform="matrix(1,0,0,1,-162,113)" stroke="rgb(255,204,0)">
      <rect x="1066" y="506.2656" clip-path="url(#clipPath2)" width="189.75" rx="4" ry="4" height="30" stroke="none"/>
    </g>
    <g text-rendering="geometricPrecision" stroke-miterlimit="1.45" shape-rendering="geometricPrecision" font-family="sans-serif" transform="matrix(1,0,0,1,-162,113)" stroke-linecap="butt">
      <text x="1144.1113" xml:space="preserve" y="525.4199" clip-path="url(#clipPath2)" stroke="none">exam</text>
      <rect x="1066" y="506.2656" clip-path="url(#clipPath2)" fill="none" width="189.75" rx="4" ry="4" height="30"/>
    </g>
    <g fill="rgb(255,204,0)" text-rendering="geometricPrecision" shape-rendering="geometricPrecision" transform="matrix(1,0,0,1,-162,113)" stroke="rgb(255,204,0)">
      <rect x="1193.375" y="558.7812" clip-path="url(#clipPath2)" width="189.75" rx="4" ry="4" height="30" stroke="none"/>
    </g>
    <g text-rendering="geometricPrecision" stroke-miterlimit="1.45" shape-rendering="geometricPrecision" font-family="sans-serif" transform="matrix(1,0,0,1,-162,113)" stroke-linecap="butt">
      <text x="1230.3213" xml:space="preserve" y="577.9355" clip-path="url(#clipPath2)" stroke="none">grades / thresholds</text>
      <rect x="1193.375" y="558.7812" clip-path="url(#clipPath2)" fill="none" width="189.75" rx="4" ry="4" height="30"/>
    </g>
    <g fill="rgb(255,204,0)" text-rendering="geometricPrecision" shape-rendering="geometricPrecision" transform="matrix(1,0,0,1,-162,113)" stroke="rgb(255,204,0)">
      <rect x="610.75" y="-97.2344" clip-path="url(#clipPath2)" width="240" rx="4" ry="4" height="698.3333" stroke="none"/>
    </g>
    <g text-rendering="geometricPrecision" stroke-miterlimit="1.45" shape-rendering="geometricPrecision" transform="matrix(1,0,0,1,-162,113)" stroke-linecap="butt">
      <rect x="610.75" y="-97.2344" clip-path="url(#clipPath2)" fill="none" width="240" rx="4" ry="4" height="698.3333"/>
    </g>
    <g fill="yellow" text-rendering="geometricPrecision" shape-rendering="geometricPrecision" transform="matrix(1,0,0,1,-162,113)" stroke="yellow">
      <rect x="627" y="154.75" clip-path="url(#clipPath2)" width="183" rx="4" ry="4" height="112.5" stroke="none"/>
    </g>
    <g text-rendering="geometricPrecision" stroke-miterlimit="1.45" shape-rendering="geometricPrecision" font-family="sans-serif" transform="matrix(1,0,0,1,-162,113)" stroke-linecap="butt">
      <text x="700.957" xml:space="preserve" y="215.1543" clip-path="url(#clipPath2)" stroke="none">drafts</text>
      <rect x="627" y="154.75" clip-path="url(#clipPath2)" fill="none" width="183" rx="4" ry="4" height="112.5"/>
    </g>
    <g fill="yellow" text-rendering="geometricPrecision" shape-rendering="geometricPrecision" transform="matrix(1,0,0,1,-162,113)" stroke="yellow">
      <rect x="627" y="308.599" clip-path="url(#clipPath2)" width="183" rx="4" ry="4" height="112.5" stroke="none"/>
    </g>
    <g text-rendering="geometricPrecision" stroke-miterlimit="1.45" shape-rendering="geometricPrecision" font-family="sans-serif" transform="matrix(1,0,0,1,-162,113)" stroke-linecap="butt">
      <text x="691.7314" xml:space="preserve" y="369.0033" clip-path="url(#clipPath2)" stroke="none">revisions</text>
      <rect x="627" y="308.599" clip-path="url(#clipPath2)" fill="none" width="183" rx="4" ry="4" height="112.5"/>
    </g>
    <g fill="yellow" text-rendering="geometricPrecision" shape-rendering="geometricPrecision" transform="matrix(1,0,0,1,-162,113)" stroke="yellow">
      <rect x="627" y="462.4479" clip-path="url(#clipPath2)" width="183" rx="4" ry="4" height="112.5" stroke="none"/>
    </g>
    <g text-rendering="geometricPrecision" stroke-miterlimit="1.45" shape-rendering="geometricPrecision" font-family="sans-serif" transform="matrix(1,0,0,1,-162,113)" stroke-linecap="butt">
      <text x="683.1123" xml:space="preserve" y="522.8522" clip-path="url(#clipPath2)" stroke="none">translations</text>
      <rect x="627" y="462.4479" clip-path="url(#clipPath2)" fill="none" width="183" rx="4" ry="4" height="112.5"/>
    </g>
    <g fill="rgb(255,204,0)" text-rendering="geometricPrecision" shape-rendering="geometricPrecision" transform="matrix(1,0,0,1,-162,113)" stroke="rgb(255,204,0)">
      <rect x="1183.25" y="-52.651" clip-path="url(#clipPath2)" width="240" rx="4" ry="4" height="67" stroke="none"/>
    </g>
    <g text-rendering="geometricPrecision" stroke-miterlimit="1.45" shape-rendering="geometricPrecision" font-family="sans-serif" transform="matrix(1,0,0,1,-162,113)" stroke-linecap="butt">
      <text x="1220.1523" xml:space="preserve" y="-14.9967" clip-path="url(#clipPath2)" stroke="none">specific / norms / standards</text>
      <rect x="1183.25" y="-52.651" clip-path="url(#clipPath2)" fill="none" width="240" rx="4" ry="4" height="67"/>
    </g>
    <g fill="red" text-rendering="geometricPrecision" shape-rendering="geometricPrecision" transform="matrix(1,0,0,1,-162,113)" stroke="red">
      <rect x="639.25" y="-59.5" clip-path="url(#clipPath2)" width="183" rx="4" ry="4" height="39.1875" stroke="none"/>
    </g>
    <g text-rendering="geometricPrecision" stroke-miterlimit="1.45" shape-rendering="geometricPrecision" font-family="sans-serif" transform="matrix(1,0,0,1,-162,113)" stroke-linecap="butt">
      <text x="665.4619" xml:space="preserve" y="-35.752" clip-path="url(#clipPath2)" stroke="none">process management</text>
      <rect x="639.25" y="-59.5" clip-path="url(#clipPath2)" fill="none" width="183" rx="4" ry="4" height="39.1875"/>
    </g>
    <g fill="red" text-rendering="geometricPrecision" shape-rendering="geometricPrecision" transform="matrix(1,0,0,1,-162,113)" stroke="red">
      <rect x="639.25" y="9.6875" clip-path="url(#clipPath2)" width="183" rx="4" ry="4" height="39.1875" stroke="none"/>
    </g>
    <g text-rendering="geometricPrecision" stroke-miterlimit="1.45" shape-rendering="geometricPrecision" font-family="sans-serif" transform="matrix(1,0,0,1,-162,113)" stroke-linecap="butt">
      <text x="658.3779" xml:space="preserve" y="33.4355" clip-path="url(#clipPath2)" stroke="none">document management</text>
      <rect x="639.25" y="9.6875" clip-path="url(#clipPath2)" fill="none" width="183" rx="4" ry="4" height="39.1875"/>
    </g>
    <g fill="rgb(255,204,0)" text-rendering="geometricPrecision" shape-rendering="geometricPrecision" transform="matrix(1,0,0,1,-162,113)" stroke="rgb(255,204,0)">
      <rect x="228" y="379.849" clip-path="url(#clipPath2)" width="290" rx="4" ry="4" height="30" stroke="none"/>
    </g>
    <g text-rendering="geometricPrecision" stroke-miterlimit="1.45" shape-rendering="geometricPrecision" font-family="sans-serif" transform="matrix(1,0,0,1,-162,113)" stroke-linecap="butt">
      <text x="307.8965" xml:space="preserve" y="399.0033" clip-path="url(#clipPath2)" stroke="none">additional documents</text>
      <rect x="228" y="379.849" clip-path="url(#clipPath2)" fill="none" width="290" rx="4" ry="4" height="30"/>
    </g>
    <g fill="rgb(255,204,0)" text-rendering="geometricPrecision" shape-rendering="geometricPrecision" transform="matrix(1,0,0,1,-162,113)" stroke="rgb(255,204,0)">
      <rect x="869.6094" y="591.2812" clip-path="url(#clipPath2)" width="240" rx="4" ry="4" height="102.5" stroke="none"/>
    </g>
    <g text-rendering="geometricPrecision" stroke-miterlimit="1.45" shape-rendering="geometricPrecision" font-family="sans-serif" transform="matrix(1,0,0,1,-162,113)" stroke-linecap="butt">
      <text x="913.2734" xml:space="preserve" y="646.6855" clip-path="url(#clipPath2)" stroke="none">informal eval approaches</text>
      <rect x="869.6094" y="591.2812" clip-path="url(#clipPath2)" fill="none" width="240" rx="4" ry="4" height="102.5"/>
    </g>
    <g fill="rgb(255,204,0)" text-rendering="geometricPrecision" shape-rendering="geometricPrecision" transform="matrix(1,0,0,1,-162,113)" stroke="rgb(255,204,0)">
      <rect x="670.2734" y="748.7969" clip-path="url(#clipPath2)" width="231.1719" rx="4" ry="4" height="30" stroke="none"/>
    </g>
    <g text-rendering="geometricPrecision" stroke-miterlimit="1.45" shape-rendering="geometricPrecision" font-family="sans-serif" transform="matrix(1,0,0,1,-162,113)" stroke-linecap="butt">
      <text x="741.1758" xml:space="preserve" y="767.9512" clip-path="url(#clipPath2)" stroke="none">transport layer</text>
      <rect x="670.2734" y="748.7969" clip-path="url(#clipPath2)" fill="none" width="231.1719" rx="4" ry="4" height="30"/>
    </g>
    <g fill="rgb(255,204,0)" text-rendering="geometricPrecision" shape-rendering="geometricPrecision" transform="matrix(1,0,0,1,-162,113)" stroke="rgb(255,204,0)">
      <rect x="277.0312" y="606.8177" clip-path="url(#clipPath2)" width="169" rx="4" ry="4" height="30" stroke="none"/>
    </g>
    <g text-rendering="geometricPrecision" stroke-miterlimit="1.45" shape-rendering="geometricPrecision" font-family="sans-serif" transform="matrix(1,0,0,1,-162,113)" stroke-linecap="butt">
      <text x="295.124" xml:space="preserve" y="625.972" clip-path="url(#clipPath2)" stroke="none">common certicificates</text>
      <rect x="277.0312" y="606.8177" clip-path="url(#clipPath2)" fill="none" width="169" rx="4" ry="4" height="30"/>
    </g>
    <g fill="rgb(255,204,0)" text-rendering="geometricPrecision" shape-rendering="geometricPrecision" transform="matrix(1,0,0,1,-162,113)" stroke="rgb(255,204,0)">
      <rect x="376.0938" y="493.3333" clip-path="url(#clipPath2)" width="183" rx="4" ry="4" height="30" stroke="none"/>
    </g>
    <g text-rendering="geometricPrecision" stroke-miterlimit="1.45" shape-rendering="geometricPrecision" font-family="sans-serif" transform="matrix(1,0,0,1,-162,113)" stroke-linecap="butt">
      <text x="380.3359" xml:space="preserve" y="512.4876" clip-path="url(#clipPath2)" stroke="none">mobility related informations</text>
      <rect x="376.0938" y="493.3333" clip-path="url(#clipPath2)" fill="none" width="183" rx="4" ry="4" height="30"/>
    </g>
    <g fill="rgb(255,204,0)" text-rendering="geometricPrecision" shape-rendering="geometricPrecision" transform="matrix(1,0,0,1,-162,113)" stroke="rgb(255,204,0)">
      <rect x="665.8594" y="829.5312" clip-path="url(#clipPath2)" width="240" rx="4" ry="4" height="51.4844" stroke="none"/>
    </g>
    <g text-rendering="geometricPrecision" stroke-miterlimit="1.45" shape-rendering="geometricPrecision" font-family="sans-serif" transform="matrix(1,0,0,1,-162,113)" stroke-linecap="butt">
      <text x="740.2031" xml:space="preserve" y="859.4277" clip-path="url(#clipPath2)" stroke="none">central storage</text>
      <rect x="665.8594" y="829.5312" clip-path="url(#clipPath2)" fill="none" width="240" rx="4" ry="4" height="51.4844"/>
    </g>
    <g fill="rgb(255,204,0)" text-rendering="geometricPrecision" shape-rendering="geometricPrecision" transform="matrix(1,0,0,1,-162,113)" stroke="rgb(255,204,0)">
      <rect x="913.75" y="481.875" clip-path="url(#clipPath2)" width="91.952" rx="4" ry="4" height="34.608" stroke="none"/>
    </g>
    <g text-rendering="geometricPrecision" stroke-miterlimit="1.45" shape-rendering="geometricPrecision" font-family="sans-serif" transform="matrix(1,0,0,1,-162,113)" stroke-linecap="butt">
      <text x="926.7172" xml:space="preserve" y="496.3489" clip-path="url(#clipPath2)" stroke="none">metadata /</text>
      <text x="920.9164" xml:space="preserve" y="510.3177" clip-path="url(#clipPath2)" stroke="none">classification</text>
      <rect x="913.75" y="481.875" clip-path="url(#clipPath2)" fill="none" width="91.952" rx="4" ry="4" height="34.608"/>
    </g>
    <g fill="rgb(255,204,0)" text-rendering="geometricPrecision" shape-rendering="geometricPrecision" transform="matrix(1,0,0,1,-162,113)" stroke="rgb(255,204,0)">
      <rect x="1055.3125" y="751.5" clip-path="url(#clipPath2)" width="367.9375" rx="4" ry="4" height="143.5625" stroke="none"/>
    </g>
    <g text-rendering="geometricPrecision" stroke-miterlimit="1.45" shape-rendering="geometricPrecision" font-family="sans-serif" transform="matrix(1,0,0,1,-162,113)" stroke-linecap="butt">
      <text x="1151.4463" xml:space="preserve" y="813.4668" clip-path="url(#clipPath2)" stroke="none">protocol to interchange data </text>
      <text x="1131.5771" xml:space="preserve" y="827.4355" clip-path="url(#clipPath2)" stroke="none">(digitaly signed exams, certificates)</text>
      <text x="1174.8779" xml:space="preserve" y="841.4043" clip-path="url(#clipPath2)" stroke="none">credit points like ects</text>
      <rect x="1055.3125" y="751.5" clip-path="url(#clipPath2)" fill="none" width="367.9375" rx="4" ry="4" height="143.5625"/>
    </g>
    <g fill="rgb(255,204,0)" text-rendering="geometricPrecision" shape-rendering="geometricPrecision" transform="matrix(1,0,0,1,-162,113)" stroke="rgb(255,204,0)">
      <rect x="929.75" y="-50.3125" clip-path="url(#clipPath2)" width="195" rx="4" ry="4" height="64.6615" stroke="none"/>
    </g>
    <g text-rendering="geometricPrecision" stroke-miterlimit="1.45" shape-rendering="geometricPrecision" font-family="sans-serif" transform="matrix(1,0,0,1,-162,113)" stroke-linecap="butt">
      <text x="944.3398" xml:space="preserve" y="-13.8275" clip-path="url(#clipPath2)" stroke="none">coverage (units / countries)</text>
      <rect x="929.75" y="-50.3125" clip-path="url(#clipPath2)" fill="none" width="195" rx="4" ry="4" height="64.6615"/>
    </g>
    <g fill="rgb(255,204,0)" text-rendering="geometricPrecision" shape-rendering="geometricPrecision" transform="matrix(1,0,0,1,-162,113)" stroke="rgb(255,204,0)">
      <rect x="1075.0781" y="228" clip-path="url(#clipPath2)" width="71.25" rx="4" ry="4" height="30" stroke="none"/>
    </g>
    <g text-rendering="geometricPrecision" stroke-miterlimit="1.45" shape-rendering="geometricPrecision" font-family="sans-serif" transform="matrix(1,0,0,1,-162,113)" stroke-linecap="butt">
      <text x="1090.4736" xml:space="preserve" y="247.1543" clip-path="url(#clipPath2)" stroke="none">weight</text>
      <rect x="1075.0781" y="228" clip-path="url(#clipPath2)" fill="none" width="71.25" rx="4" ry="4" height="30"/>
    </g>
    <g fill="rgb(255,204,0)" text-rendering="geometricPrecision" shape-rendering="geometricPrecision" transform="matrix(1,0,0,1,-162,113)" stroke="rgb(255,204,0)">
      <rect x="177.0938" y="469.825" clip-path="url(#clipPath2)" width="169" rx="4" ry="4" height="49.2" stroke="none"/>
    </g>
    <g text-rendering="geometricPrecision" stroke-miterlimit="1.45" shape-rendering="geometricPrecision" font-family="sans-serif" transform="matrix(1,0,0,1,-162,113)" stroke-linecap="butt">
      <text x="219.125" xml:space="preserve" y="484.6105" clip-path="url(#clipPath2)" stroke="none">methodoligies</text>
      <text x="195.6201" xml:space="preserve" y="498.5793" clip-path="url(#clipPath2)" stroke="none">descriptions of exams</text>
      <text x="225.0049" xml:space="preserve" y="512.548" clip-path="url(#clipPath2)" stroke="none">conditions...</text>
      <rect x="177.0938" y="469.825" clip-path="url(#clipPath2)" fill="none" width="169" rx="4" ry="4" height="49.2"/>
      <path fill="none" d="M1098.7644 87.4734 L1325.8258 109.4831" clip-path="url(#clipPath2)"/>
      <path d="M1333.7885 110.2549 L1322.3268 104.1205 L1324.8304 109.3866 L1321.3621 114.0738 Z" clip-path="url(#clipPath2)" stroke="none"/>
      <path fill="none" d="M1098.7468 79.2812 L1140.7797 79.2812" clip-path="url(#clipPath2)"/>
      <path d="M1148.7797 79.2812 L1136.7797 74.2812 L1139.7797 79.2812 L1136.7797 84.2812 Z" clip-path="url(#clipPath2)" stroke="none"/>
      <path fill="none" d="M1098.7524 98.1997 L1207.4684 122.5391" clip-path="url(#clipPath2)"/>
      <path d="M1215.2751 124.2869 L1204.6573 116.786 L1206.4926 122.3206 L1202.4727 126.5444 Z" clip-path="url(#clipPath2)" stroke="none"/>
      <path fill="none" d="M1074.0973 121.7764 L1155.5947 179.6444" clip-path="url(#clipPath2)"/>
      <path d="M1162.1177 184.276 L1155.228 173.2518 L1154.7794 179.0654 L1149.4386 181.4054 Z" clip-path="url(#clipPath2)" stroke="none"/>
      <path fill="none" d="M995.0593 121.7922 L984.8047 144.5081" clip-path="url(#clipPath2)"/>
      <path d="M981.5132 151.7996 L991.0077 142.9196 L985.2162 143.5966 L981.8934 138.8051 Z" clip-path="url(#clipPath2)" stroke="none"/>
      <path fill="none" d="M1283.7805 459.207 L1312.7615 456.5573" clip-path="url(#clipPath2)"/>
      <path d="M1320.7283 455.8289 L1308.3229 451.9423 L1311.7656 456.6484 L1309.2334 461.9008 Z" clip-path="url(#clipPath2)" stroke="none"/>
      <path fill="none" d="M1282.6893 477.4897 L1350.9952 496.623" clip-path="url(#clipPath2)"/>
      <path d="M1358.6987 498.7809 L1348.4922 490.7295 L1350.0323 496.3533 L1345.7948 500.3588 Z" clip-path="url(#clipPath2)" stroke="none"/>
      <path fill="none" d="M1349.0641 346.7617 L1271.8458 392.6908" clip-path="url(#clipPath2)"/>
      <path d="M1264.9701 396.7804 L1277.8396 394.9433 L1272.7052 392.1796 L1272.7275 386.3487 Z" clip-path="url(#clipPath2)" stroke="none"/>
      <path fill="none" d="M1238.0186 426.7871 L1236.397 440.8412" clip-path="url(#clipPath2)"/>
      <path d="M1235.48 448.7885 L1241.8225 437.4407 L1236.5116 439.8478 L1231.8884 436.2945 Z" clip-path="url(#clipPath2)" stroke="none"/>
      <path fill="none" d="M394.1472 108.7611 L392.9714 130.8811" clip-path="url(#clipPath2)"/>
      <path d="M392.5468 138.8698 L398.1767 127.1521 L393.0245 129.8825 L388.1908 126.6214 Z" clip-path="url(#clipPath2)" stroke="none"/>
      <path fill="none" d="M1094.6516 369.274 L1216.4813 298.7721" clip-path="url(#clipPath2)"/>
      <path d="M1223.4055 294.7651 L1210.5149 296.4481 L1215.6158 299.273 L1215.5237 305.1032 Z" clip-path="url(#clipPath2)" stroke="none"/>
      <path fill="none" d="M1274.3049 294.7787 L1326.2181 313.9985" clip-path="url(#clipPath2)"/>
      <path d="M1333.7205 316.7761 L1324.203 307.9207 L1325.2804 313.6513 L1320.731 317.2986 Z" clip-path="url(#clipPath2)" stroke="none"/>
      <path fill="none" d="M1214.7129 478.7979 L1186.1624 501.3188" clip-path="url(#clipPath2)"/>
      <path d="M1179.8812 506.2733 L1192.3995 502.7672 L1186.9475 500.6995 L1186.2063 494.9158 Z" clip-path="url(#clipPath2)" stroke="none"/>
      <path fill="none" d="M1197.2279 536.2536 L1244.454 555.7245" clip-path="url(#clipPath2)"/>
      <path d="M1251.8501 558.7739 L1242.6619 549.5774 L1243.5295 555.3434 L1238.8502 558.8224 Z" clip-path="url(#clipPath2)" stroke="none"/>
      <path fill="none" d="M451.3918 210.7904 L602.8328 233.0935" clip-path="url(#clipPath2)"/>
      <path d="M610.7474 234.2591 L599.6039 227.5641 L601.8434 232.9478 L598.1469 237.4574 Z" clip-path="url(#clipPath2)" stroke="none"/>
      <path fill="none" d="M1098.7416 50.5037 L1197.3424 16.9207" clip-path="url(#clipPath2)"/>
      <path d="M1204.9152 14.3414 L1191.944 13.4773 L1196.3958 17.2431 L1195.168 22.9433 Z" clip-path="url(#clipPath2)" stroke="none"/>
      <path fill="none" d="M610.7867 299.8561 L417.9606 376.8877" clip-path="url(#clipPath2)"/>
      <path d="M410.5315 379.8556 L423.5301 380.047 L418.8893 376.5168 L419.8203 370.7606 Z" clip-path="url(#clipPath2)" stroke="none"/>
      <path fill="none" d="M372.2426 409.838 L362.692 598.8455" clip-path="url(#clipPath2)"/>
      <path d="M362.2883 606.8353 L367.8875 595.1029 L362.7425 597.8467 L357.9003 594.5982 Z" clip-path="url(#clipPath2)" stroke="none"/>
      <path fill="none" d="M385.494 409.838 L449.9842 487.2071" clip-path="url(#clipPath2)"/>
      <path d="M455.1064 493.3522 L451.2638 480.9331 L449.3439 486.4389 L443.5824 487.3359 Z" clip-path="url(#clipPath2)" stroke="none"/>
      <path fill="none" d="M1009.9909 436.271 L978.5378 475.6355" clip-path="url(#clipPath2)"/>
      <path d="M973.5439 481.8854 L984.9409 475.6317 L979.162 474.8543 L977.1285 469.3894 Z" clip-path="url(#clipPath2)" stroke="none"/>
      <path fill="none" d="M1037.7734 314.7897 L1089.7964 263.58" clip-path="url(#clipPath2)"/>
      <path d="M1095.4976 257.9678 L1083.4381 262.8228 L1089.0837 264.2815 L1090.4534 269.9493 Z" clip-path="url(#clipPath2)" stroke="none"/>
      <path fill="none" d="M356.2184 409.8486 L295.0726 464.5013" clip-path="url(#clipPath2)"/>
      <path d="M289.1079 469.8326 L301.387 465.5636 L295.8181 463.8349 L294.7229 458.1078 Z" clip-path="url(#clipPath2)" stroke="none"/>
    </g>
  </g>
</svg>
