<?xml version="1.0" encoding="UTF-8"?><svg xmlns="http://www.w3.org/2000/svg" xmlns:xlink="http://www.w3.org/1999/xlink" fill-opacity="1" color-rendering="auto" color-interpolation="auto" stroke="black" text-rendering="auto" stroke-linecap="square" width="619" stroke-miterlimit="10" stroke-opacity="1" shape-rendering="auto" fill="black" stroke-dasharray="none" font-weight="normal" stroke-width="1" height="429" font-family="'Dialog'" font-style="normal" stroke-linejoin="miter" font-size="12" stroke-dashoffset="0" image-rendering="auto">
  <!--Generated by ySVG-->
  <defs id="genericDefs"/>
  <g>
    <defs id="defs1">
      <clipPath clipPathUnits="userSpaceOnUse" id="clipPath1">
        <path d="M0 0 L619 0 L619 429 L0 429 L0 0 Z"/>
      </clipPath>
      <clipPath clipPathUnits="userSpaceOnUse" id="clipPath2">
        <path d="M54 13 L673 13 L673 442 L54 442 L54 13 Z"/>
      </clipPath>
    </defs>
    <g fill="white" transform="translate(-54,-13)" stroke="white">
      <rect x="54" width="619" height="429" y="13" clip-path="url(#clipPath2)" stroke="none"/>
    </g>
    <g fill="rgb(195,214,155)" transform="matrix(1,0,0,1,-54,-13)" stroke="rgb(195,214,155)">
      <rect x="293" y="196" clip-path="url(#clipPath2)" width="128" rx="4" ry="4" height="72" stroke="none"/>
    </g>
    <g stroke-miterlimit="1.45" font-family="sans-serif" transform="matrix(1,0,0,1,-54,-13)" stroke-linecap="butt">
      <text x="312.9199" xml:space="preserve" y="236.1543" clip-path="url(#clipPath2)" stroke="none">ECVET-System</text>
      <rect x="293" y="196" clip-path="url(#clipPath2)" fill="none" width="128" rx="4" ry="4" height="72"/>
    </g>
    <g fill="rgb(219,229,241)" transform="matrix(1,0,0,1,-54,-13)" stroke="rgb(219,229,241)">
      <rect x="448" y="56" clip-path="url(#clipPath2)" width="128" rx="4" ry="4" height="59" stroke="none"/>
    </g>
    <g stroke-miterlimit="1.45" font-family="sans-serif" transform="matrix(1,0,0,1,-54,-13)" stroke-linecap="butt">
      <text x="499.6719" xml:space="preserve" y="89.6543" clip-path="url(#clipPath2)" stroke="none">LMS</text>
      <rect x="448" y="56" clip-path="url(#clipPath2)" fill="none" width="128" rx="4" ry="4" height="59"/>
    </g>
    <g fill="rgb(251,194,194)" transform="matrix(1,0,0,1,-54,-13)" stroke="rgb(251,194,194)">
      <rect x="475" y="361.8" clip-path="url(#clipPath2)" width="101" rx="4" ry="4" height="65" stroke="none"/>
    </g>
    <g stroke-miterlimit="1.45" font-family="sans-serif" transform="matrix(1,0,0,1,-54,-13)" stroke-linecap="butt">
      <text x="496.9121" xml:space="preserve" y="398.4543" clip-path="url(#clipPath2)" stroke="none">ePortfolio</text>
      <rect x="475" y="361.8" clip-path="url(#clipPath2)" fill="none" width="101" rx="4" ry="4" height="65"/>
    </g>
    <g fill="silver" transform="matrix(1,0,0,1,-54,-13)" stroke="silver">
      <rect x="293" y="28.2" clip-path="url(#clipPath2)" width="66" rx="4" ry="4" height="30" stroke="none"/>
    </g>
    <g stroke-miterlimit="1.45" font-family="sans-serif" transform="matrix(1,0,0,1,-54,-13)" stroke-linecap="butt">
      <text x="313.3174" xml:space="preserve" y="47.3543" clip-path="url(#clipPath2)" stroke="none">OER</text>
      <rect x="293" y="28.2" clip-path="url(#clipPath2)" fill="none" width="66" rx="4" ry="4" height="30"/>
      <path fill="none" d="M357 195.9906 L357 85.5 L439.9644 85.5" clip-path="url(#clipPath2)"/>
      <path d="M447.9644 85.5 L435.9644 80.5 L438.9644 85.5 L435.9644 90.5 Z" clip-path="url(#clipPath2)" stroke="none"/>
      <text x="71.75" xml:space="preserve" y="140.3418" clip-path="url(#clipPath2)" stroke="none">Needed Learning Content for the Qualification </text>
      <path fill="none" d="M512 115.0074 L512 232 L428.9905 232" clip-path="url(#clipPath2)"/>
      <path d="M420.9905 232 L432.9905 237 L429.9905 232 L432.9905 227 Z" clip-path="url(#clipPath2)" stroke="none"/>
      <text x="434.6465" xml:space="preserve" y="182.2168" clip-path="url(#clipPath2)" stroke="none">Test Results</text>
      <path fill="none" d="M357 268.0182 L357 394.3 L467.024 394.3" clip-path="url(#clipPath2)"/>
      <path d="M475.024 394.3 L463.024 389.3 L466.024 394.3 L463.024 399.3 Z" clip-path="url(#clipPath2)" stroke="none"/>
      <text x="361" xml:space="preserve" y="339.8668" clip-path="url(#clipPath2)" stroke="none">Certification Artefacts</text>
      <path fill="none" d="M558.9568 123.0067 L558.9568 353.7735" clip-path="url(#clipPath2)"/>
      <path d="M558.9568 115.0067 L553.9568 127.0067 L558.9568 124.0067 L563.9568 127.0067 Z" clip-path="url(#clipPath2)" stroke="none"/>
      <path d="M558.9568 361.7735 L563.9568 349.7735 L558.9568 352.7735 L553.9568 349.7735 Z" clip-path="url(#clipPath2)" stroke="none"/>
      <text x="569.2234" xml:space="preserve" y="228.5855" clip-path="url(#clipPath2)" stroke="none">Collaboration</text>
      <text x="574.4851" xml:space="preserve" y="242.5543" clip-path="url(#clipPath2)" stroke="none">Community</text>
      <text x="562.9568" xml:space="preserve" y="256.523" clip-path="url(#clipPath2)" stroke="none">Documentation</text>
      <path fill="none" d="M324.9395 195.9637 L325.8401 66.23" clip-path="url(#clipPath2)"/>
      <path d="M325.8957 58.2302 L320.8125 70.1952 L325.8332 67.23 L330.8122 70.2646 Z" clip-path="url(#clipPath2)" stroke="none"/>
    </g>
  </g>
</svg>
