<?xml version="1.0" encoding="UTF-8"?><svg xmlns="http://www.w3.org/2000/svg" xmlns:xlink="http://www.w3.org/1999/xlink" fill-opacity="1" color-rendering="auto" color-interpolation="auto" stroke="black" text-rendering="auto" stroke-linecap="square" width="389" stroke-miterlimit="10" stroke-opacity="1" shape-rendering="auto" fill="black" stroke-dasharray="none" font-weight="normal" stroke-width="1" height="141" font-family="'Dialog'" font-style="normal" stroke-linejoin="miter" font-size="12" stroke-dashoffset="0" image-rendering="auto">
  <!--Generated by ySVG-->
  <defs id="genericDefs"/>
  <g>
    <defs id="defs1">
      <clipPath clipPathUnits="userSpaceOnUse" id="clipPath1">
        <path d="M0 0 L389 0 L389 141 L0 141 L0 0 Z"/>
      </clipPath>
      <clipPath clipPathUnits="userSpaceOnUse" id="clipPath2">
        <path d="M143 76 L532 76 L532 217 L143 217 L143 76 Z"/>
      </clipPath>
    </defs>
    <g fill="white" transform="translate(-143,-76)" stroke="white">
      <rect x="143" width="389" height="141" y="76" clip-path="url(#clipPath2)" stroke="none"/>
    </g>
    <g fill="silver" transform="matrix(1,0,0,1,-143,-76)" stroke="silver">
      <rect x="296" y="91" clip-path="url(#clipPath2)" width="83" rx="4" ry="4" height="33" stroke="none"/>
    </g>
    <g stroke-miterlimit="1.45" font-family="sans-serif" transform="matrix(1,0,0,1,-143,-76)" stroke-linecap="butt">
      <text x="309.3604" xml:space="preserve" y="111.6543" clip-path="url(#clipPath2)" stroke="none">Sentence</text>
      <rect x="296" y="91" clip-path="url(#clipPath2)" fill="none" width="83" rx="4" ry="4" height="33"/>
    </g>
    <g fill="rgb(195,214,155)" transform="matrix(1,0,0,1,-143,-76)" stroke="rgb(195,214,155)">
      <rect x="158" y="169" clip-path="url(#clipPath2)" width="83" rx="4" ry="4" height="33" stroke="none"/>
    </g>
    <g stroke-miterlimit="1.45" font-family="sans-serif" transform="matrix(1,0,0,1,-143,-76)" stroke-linecap="butt">
      <text x="177.0703" xml:space="preserve" y="189.6543" clip-path="url(#clipPath2)" stroke="none">Subject</text>
      <rect x="158" y="169" clip-path="url(#clipPath2)" fill="none" width="83" rx="4" ry="4" height="33"/>
    </g>
    <g fill="rgb(219,229,241)" transform="matrix(1,0,0,1,-143,-76)" stroke="rgb(219,229,241)">
      <rect x="296" y="169" clip-path="url(#clipPath2)" width="83" rx="4" ry="4" height="33" stroke="none"/>
    </g>
    <g stroke-miterlimit="1.45" font-family="sans-serif" transform="matrix(1,0,0,1,-143,-76)" stroke-linecap="butt">
      <text x="323.4287" xml:space="preserve" y="189.6543" clip-path="url(#clipPath2)" stroke="none">Verb</text>
      <rect x="296" y="169" clip-path="url(#clipPath2)" fill="none" width="83" rx="4" ry="4" height="33"/>
    </g>
    <g fill="rgb(251,194,194)" transform="matrix(1,0,0,1,-143,-76)" stroke="rgb(251,194,194)">
      <rect x="434" y="169" clip-path="url(#clipPath2)" width="83" rx="4" ry="4" height="33" stroke="none"/>
    </g>
    <g stroke-miterlimit="1.45" font-family="sans-serif" transform="matrix(1,0,0,1,-143,-76)" stroke-linecap="butt">
      <text x="455.959" xml:space="preserve" y="189.6543" clip-path="url(#clipPath2)" stroke="none">Object</text>
      <rect x="434" y="169" clip-path="url(#clipPath2)" fill="none" width="83" rx="4" ry="4" height="33"/>
      <path fill="none" d="M308.2896 124.0103 L235.6539 165.0652" clip-path="url(#clipPath2)"/>
      <path d="M228.6894 169.0017 L241.5964 167.4498 L236.5244 164.5732 L236.6758 158.7442 Z" clip-path="url(#clipPath2)" stroke="none"/>
      <path fill="none" d="M337.5 123.9912 L337.5 161.0116" clip-path="url(#clipPath2)"/>
      <path d="M337.5 169.0116 L342.5 157.0116 L337.5 160.0116 L332.5 157.0116 Z" clip-path="url(#clipPath2)" stroke="none"/>
      <path fill="none" d="M366.7104 124.0103 L439.3461 165.0652" clip-path="url(#clipPath2)"/>
      <path d="M446.3106 169.0017 L438.3241 158.7442 L438.4756 164.5732 L433.4036 167.4498 Z" clip-path="url(#clipPath2)" stroke="none"/>
    </g>
  </g>
</svg>
